<svg width="25" height="24" viewBox="0 0 25 24" fill="current" xmlns="http://www.w3.org/2000/svg">
<path fill-rule="evenodd" clip-rule="evenodd" d="M25.0002 13.5013V10.5009L21.7598 9.96087C21.5356 9.00197 21.1544 8.08673 20.6317 7.25217L22.5519 4.57708L20.4277 2.45525L17.7514 4.36585C16.9144 3.84612 15.9983 3.4663 15.0391 3.24133L14.499 0.000976562H11.4987L10.9586 3.24133C9.9994 3.46674 9.08329 3.84696 8.24635 4.36705L5.57006 2.45644L3.44583 4.57828L5.36604 7.25337C4.84308 8.08782 4.46189 9.00309 4.23791 9.96207L0.997559 10.5021V13.5025L4.23791 14.0425C4.46214 15.0014 4.84332 15.9166 5.36604 16.7512L3.44583 19.4275L5.57006 21.5481L8.24635 19.6363C9.08278 20.1569 9.9991 20.5364 10.9586 20.7596L11.4987 24H14.499L15.0391 20.7596C15.9986 20.5364 16.915 20.1569 17.7514 19.6363L20.4277 21.5481L22.5519 19.4275L20.6317 16.7512C21.1542 15.9165 21.5353 15.0013 21.7598 14.0425L25.0002 13.5013ZM12.999 18.0018C9.68492 18.0018 6.99834 15.3152 6.99834 12.0011C6.99834 8.68703 9.68492 6.00044 12.999 6.00044C16.3131 6.00044 18.9996 8.68703 18.9996 12.0011C18.9996 15.3152 16.3131 18.0018 12.999 18.0018Z"/>
</svg>
